<svg xmlns="http://www.w3.org/2000/svg" viewBox="0 0 600 100">
  <rect width="600" height="100" fill="none"/>
  <g stroke="#1c1917" stroke-width="3">
    <g fill="#78350f"><rect x="31" y="30" width="38" height="45"/><rect x="22" y="45" width="14" height="28"/><rect x="64" y="45" width="14" height="28"/></g><rect x="34" y="20" width="32" height="18" fill="#a16207"/><rect x="39" y="26" width="22" height="6" fill="#111827"/><path d="M72 40 L88 24" stroke="#e5e7eb"/>
    <g transform="translate(100)" fill="#78350f"><rect x="31" y="30" width="38" height="45"/><rect x="22" y="45" width="14" height="28"/><rect x="64" y="45" width="14" height="28"/><rect x="34" y="20" width="32" height="18" fill="#a16207"/><rect x="39" y="26" width="22" height="6" fill="#111827"/><path d="M72 40 L88 24" stroke="#e5e7eb" fill="none"/></g>
    <g transform="translate(200)" fill="#78350f"><rect x="31" y="30" width="38" height="45"/><rect x="22" y="45" width="14" height="28"/><rect x="64" y="45" width="14" height="28"/><rect x="34" y="20" width="32" height="18" fill="#a16207"/><rect x="39" y="26" width="22" height="6" fill="#111827"/><path d="M72 40 L88 24" stroke="#e5e7eb" fill="none"/></g>
    <g transform="translate(300)" fill="#78350f"><rect x="31" y="30" width="38" height="45"/><rect x="22" y="45" width="14" height="28"/><rect x="64" y="45" width="14" height="28"/><rect x="34" y="20" width="32" height="18" fill="#a16207"/><rect x="39" y="26" width="22" height="6" fill="#111827"/><path d="M72 40 L88 24" stroke="#e5e7eb" fill="none"/></g>
    <g transform="translate(400)" fill="#78350f"><rect x="31" y="30" width="38" height="45"/><rect x="22" y="45" width="14" height="28"/><rect x="64" y="45" width="14" height="28"/><rect x="34" y="20" width="32" height="18" fill="#a16207"/><rect x="39" y="26" width="22" height="6" fill="#111827"/><path d="M72 40 L88 24" stroke="#e5e7eb" fill="none"/></g>
    <g transform="translate(500) rotate(-70 50 60)" fill="#78350f"><rect x="31" y="30" width="38" height="45"/><rect x="22" y="45" width="14" height="28"/><rect x="64" y="45" width="14" height="28"/><rect x="34" y="20" width="32" height="18" fill="#a16207"/><rect x="39" y="26" width="22" height="6" fill="#111827"/></g>
  </g>
</svg>
