<svg xmlns="http://www.w3.org/2000/svg" width="384" height="64" viewBox="0 0 384 64">
  <rect width="384" height="64" fill="none"/>
  <g fill="#111827" stroke="#fcd34d" stroke-width="2">
    <rect x="8" y="8" width="48" height="48"/><rect x="72" y="6" width="48" height="48"/><rect x="136" y="8" width="48" height="48"/><rect x="200" y="8" width="48" height="48"/><rect x="264" y="8" width="48" height="48"/><rect x="328" y="28" width="48" height="26"/>
  </g>
  <g fill="#7f1d1d"><rect x="18" y="31" width="28" height="18"/><rect x="82" y="29" width="28" height="18"/><rect x="146" y="31" width="28" height="18"/><rect x="210" y="31" width="28" height="18"/><rect x="274" y="31" width="28" height="18"/><rect x="340" y="38" width="24" height="10"/></g>
  <g fill="#fcd34d"><rect x="18" y="8" width="28" height="7"/><rect x="82" y="6" width="28" height="7"/><rect x="146" y="8" width="28" height="7"/><rect x="210" y="8" width="28" height="7"/><rect x="274" y="8" width="28" height="7"/></g>
</svg>
