<svg xmlns="http://www.w3.org/2000/svg" viewBox="0 0 600 100">
  <rect width="600" height="100" fill="none"/>
  <g fill="#52525b" stroke="#18181b" stroke-width="3">
    <path d="M20 58 L42 38 L70 43 L82 62 L62 78 L30 76 Z"/><path d="M67 43 L86 29 L81 54 Z"/><circle cx="36" cy="57" r="4" fill="#f8fafc"/>
    <path transform="translate(100)" d="M20 58 L42 38 L70 43 L82 62 L62 78 L30 76 Z"/><path transform="translate(100)" d="M67 43 L86 29 L81 54 Z"/><circle cx="136" cy="57" r="4" fill="#f8fafc"/>
    <path transform="translate(200)" d="M20 58 L42 38 L70 43 L82 62 L62 78 L30 76 Z"/><path transform="translate(200)" d="M67 43 L86 29 L81 54 Z"/><circle cx="236" cy="57" r="4" fill="#f8fafc"/>
    <path transform="translate(300)" d="M20 58 L42 38 L70 43 L82 62 L62 78 L30 76 Z"/><path transform="translate(300)" d="M67 43 L86 29 L81 54 Z"/><circle cx="336" cy="57" r="4" fill="#f8fafc"/>
    <path transform="translate(400)" d="M20 58 L42 38 L70 43 L82 62 L62 78 L30 76 Z"/><path transform="translate(400)" d="M67 43 L86 29 L81 54 Z"/><circle cx="436" cy="57" r="4" fill="#f8fafc"/>
    <path transform="translate(500) rotate(-18 50 60)" d="M20 58 L42 38 L70 43 L82 62 L62 78 L30 76 Z"/><path transform="translate(500) rotate(-18 50 60)" d="M67 43 L86 29 L81 54 Z"/><circle cx="536" cy="57" r="4" fill="#f8fafc"/>
  </g>
</svg>
