<svg xmlns="http://www.w3.org/2000/svg" viewBox="0 0 600 100" shape-rendering="geometricPrecision">
  <rect width="600" height="100" fill="none"/>
  <defs>
    <linearGradient id="steel" x1="0" y1="0" x2="0" y2="1"><stop offset="0" stop-color="#f8fafc"/><stop offset=".45" stop-color="#94a3b8"/><stop offset="1" stop-color="#475569"/></linearGradient>
    <linearGradient id="blue" x1="0" y1="0" x2="0" y2="1"><stop offset="0" stop-color="#38bdf8"/><stop offset="1" stop-color="#1e3a8a"/></linearGradient>
    <g id="knight">
      <ellipse cx="50" cy="86" rx="30" ry="7" fill="#000" opacity=".25"/>
      <path d="M29 43 L39 31 H61 L72 43 L68 74 H32 Z" fill="url(#steel)" stroke="#1e293b" stroke-width="3"/>
      <path d="M37 44 H63 V67 H37 Z" fill="url(#blue)" stroke="#172554" stroke-width="2"/>
      <path d="M38 22 H62 L68 35 L62 44 H38 L32 35 Z" fill="url(#steel)" stroke="#1e293b" stroke-width="3"/>
      <path d="M39 33 H62" stroke="#0f172a" stroke-width="4"/>
      <path d="M42 19 H58 L55 12 H45 Z" fill="#facc15" stroke="#854d0e" stroke-width="2"/>
      <path d="M32 48 L18 61 L24 72 L37 59" fill="#cbd5e1" stroke="#1e293b" stroke-width="3"/>
      <path d="M67 48 L82 30" stroke="#e5e7eb" stroke-width="6" stroke-linecap="round"/>
      <path d="M82 30 L88 21" stroke="#f8fafc" stroke-width="3" stroke-linecap="round"/>
      <path d="M39 73 L35 88 H46 L50 73 Z" fill="#334155" stroke="#0f172a" stroke-width="2"/>
      <path d="M58 73 L62 88 H73 L67 73 Z" fill="#334155" stroke="#0f172a" stroke-width="2"/>
      <circle cx="25" cy="66" r="12" fill="#64748b" stroke="#e2e8f0" stroke-width="3"/>
      <path d="M20 66 H30 M25 61 V71" stroke="#1e293b" stroke-width="2"/>
    </g>
  </defs>
  <use href="#knight"/>
  <use href="#knight" x="100" transform="translate(100 -2)"/>
  <use href="#knight" x="200" transform="rotate(-10 250 55)"/>
  <use href="#knight" x="300"/>
  <use href="#knight" x="400"/>
  <use href="#knight" x="500" transform="rotate(-65 550 70) translate(-8 8)"/>
  <g stroke-linecap="round">
    <path d="M274 43 L306 28" stroke="#f8fafc" stroke-width="7"/>
    <path d="M303 27 L316 18" stroke="#fde68a" stroke-width="3"/>
    <path d="M430 42 C445 32 462 32 476 43" fill="none" stroke="#bae6fd" stroke-width="4" opacity=".9"/>
  </g>
</svg>
