<svg xmlns="http://www.w3.org/2000/svg" viewBox="0 0 600 100" shape-rendering="geometricPrecision">
  <rect width="600" height="100" fill="none"/>
  <defs>
    <linearGradient id="leather" x1="0" y1="0" x2="0" y2="1"><stop offset="0" stop-color="#4b5563"/><stop offset=".5" stop-color="#1f2937"/><stop offset="1" stop-color="#111827"/></linearGradient>
    <linearGradient id="cloak" x1="0" y1="0" x2="0" y2="1"><stop offset="0" stop-color="#22c55e"/><stop offset="1" stop-color="#14532d"/></linearGradient>
    <g id="rogue">
      <ellipse cx="50" cy="86" rx="28" ry="7" fill="#000" opacity=".25"/>
      <path d="M31 38 C36 26 64 26 70 39 L66 77 H34 Z" fill="url(#leather)" stroke="#020617" stroke-width="3"/>
      <path d="M34 41 C42 48 56 49 66 40 L62 73 H38 Z" fill="url(#cloak)" stroke="#052e16" stroke-width="2"/>
      <path d="M34 24 L49 14 L66 24 L61 39 H38 Z" fill="#111827" stroke="#020617" stroke-width="3"/>
      <path d="M39 32 H62" stroke="#bbf7d0" stroke-width="3"/>
      <path d="M30 50 L17 65" stroke="#111827" stroke-width="6" stroke-linecap="round"/>
      <path d="M17 65 L10 73" stroke="#e5e7eb" stroke-width="4" stroke-linecap="round"/>
      <path d="M69 48 L83 60" stroke="#111827" stroke-width="6" stroke-linecap="round"/>
      <path d="M83 60 L92 66" stroke="#e5e7eb" stroke-width="4" stroke-linecap="round"/>
      <path d="M39 74 L32 88 H44 L50 75 Z" fill="#0f172a" stroke="#020617" stroke-width="2"/>
      <path d="M59 74 L64 88 H76 L67 74 Z" fill="#0f172a" stroke="#020617" stroke-width="2"/>
      <path d="M39 55 H61" stroke="#a3e635" stroke-width="3"/>
    </g>
  </defs>
  <use href="#rogue"/>
  <use href="#rogue" x="100" transform="translate(100 -3)"/>
  <use href="#rogue" x="200" transform="rotate(8 250 55)"/>
  <use href="#rogue" x="300"/>
  <use href="#rogue" x="400"/>
  <use href="#rogue" x="500" transform="rotate(-70 550 70) translate(-8 8)"/>
  <path d="M218 60 C240 35 272 33 294 55" fill="none" stroke="#bbf7d0" stroke-width="6" stroke-linecap="round" opacity=".82"/>
  <path d="M222 67 C246 49 276 49 300 66" fill="none" stroke="#14b8a6" stroke-width="3" stroke-linecap="round" opacity=".72"/>
  <path d="M428 54 C440 42 459 42 473 54" fill="none" stroke="#86efac" stroke-width="4" opacity=".7"/>
</svg>
