<svg xmlns="http://www.w3.org/2000/svg" viewBox="0 0 600 100" shape-rendering="geometricPrecision">
  <rect width="600" height="100" fill="none"/>
  <defs>
    <radialGradient id="orb" cx="35%" cy="35%" r="65%"><stop offset="0" stop-color="#f5f3ff"/><stop offset=".34" stop-color="#c4b5fd"/><stop offset="1" stop-color="#7c3aed"/></radialGradient>
    <linearGradient id="robe" x1="0" y1="0" x2="0" y2="1"><stop offset="0" stop-color="#8b5cf6"/><stop offset=".52" stop-color="#581c87"/><stop offset="1" stop-color="#2e1065"/></linearGradient>
    <g id="wizard">
      <ellipse cx="50" cy="86" rx="29" ry="7" fill="#000" opacity=".25"/>
      <path d="M29 76 L38 34 H62 L72 76 Z" fill="url(#robe)" stroke="#1e1b4b" stroke-width="3"/>
      <path d="M35 45 C43 51 57 51 65 45 L62 75 H38 Z" fill="#312e81" opacity=".65"/>
      <circle cx="50" cy="32" r="11" fill="#f1c27d" stroke="#1e1b4b" stroke-width="3"/>
      <path d="M34 27 L50 10 L66 27 Z" fill="#4c1d95" stroke="#1e1b4b" stroke-width="3"/>
      <path d="M44 17 L49 9 L55 18" fill="none" stroke="#fbbf24" stroke-width="2"/>
      <path d="M34 50 L21 66" stroke="#4c1d95" stroke-width="6" stroke-linecap="round"/>
      <path d="M68 48 L80 27" stroke="#854d0e" stroke-width="5" stroke-linecap="round"/>
      <circle cx="82" cy="23" r="8" fill="url(#orb)" stroke="#ddd6fe" stroke-width="2"/>
      <path d="M39 76 L36 89 H47 L50 76 Z" fill="#1e1b4b" stroke="#0f172a" stroke-width="2"/>
      <path d="M60 76 L64 89 H75 L68 76 Z" fill="#1e1b4b" stroke="#0f172a" stroke-width="2"/>
      <path d="M41 57 H59" stroke="#f0abfc" stroke-width="3"/>
      <circle cx="43" cy="32" r="2" fill="#111827"/><circle cx="57" cy="32" r="2" fill="#111827"/>
    </g>
  </defs>
  <use href="#wizard"/>
  <use href="#wizard" x="100" transform="translate(100 -3)"/>
  <use href="#wizard" x="200" transform="rotate(-4 250 55)"/>
  <use href="#wizard" x="300"/>
  <use href="#wizard" x="400"/>
  <use href="#wizard" x="500" transform="rotate(-70 550 70) translate(-8 8)"/>
  <circle cx="282" cy="24" r="13" fill="url(#orb)" opacity=".92"/>
  <path d="M260 36 C276 22 296 22 312 37" fill="none" stroke="#c4b5fd" stroke-width="4" opacity=".75"/>
  <path d="M426 36 C444 22 464 24 480 39" fill="none" stroke="#93c5fd" stroke-width="4" opacity=".7"/>
</svg>
